<mxfile host="app.diagrams.net" modified="2024-03-29T12:59:37.309Z" agent="Mozilla/5.0 (Windows NT 10.0; Win64; x64) AppleWebKit/537.36 (KHTML, like Gecko) Chrome/123.0.0.0 Safari/537.36" version="24.2.0" etag="GGJc--HF9wgHAw1fNzvm" type="github">
  <diagram name="Page-1" id="KfEPyKVl0j1n_NlU6tk2">
    <mxGraphModel>
      <root>
        <mxCell id="0" />
        <mxCell id="1" parent="0" />
      </root>
    </mxGraphModel>
  </diagram>
</mxfile>
